<svg xmlns="http://www.w3.org/2000/svg" viewBox="0 0 24 24" width="24" height="24">
  <!-- Papier -->
  <rect x="4" y="4" width="16" height="16" rx="1" fill="#f8f9fa" stroke="#333" stroke-width="1.5"/>

  <!-- Lignes du papier -->
  <line x1="5" y1="6" x2="19" y2="6" stroke="#e0e0e0" stroke-width="0.5" stroke-dasharray="2,2"/>
  <line x1="5" y1="8" x2="19" y2="8" stroke="#e0e0e0" stroke-width="0.5" stroke-dasharray="2,2"/>
  <line x1="5" y1="10" x2="19" y2="10" stroke="#e0e0e0" stroke-width="0.5" stroke-dasharray="2,2"/>
  <line x1="5" y1="12" x2="19" y2="12" stroke="#e0e0e0" stroke-width="0.5" stroke-dasharray="2,2"/>
  <line x1="5" y1="14" x2="19" y2="14" stroke="#e0e0e0" stroke-width="0.5" stroke-dasharray="2,2"/>
  <line x1="5" y1="16" x2="19" y2="16" stroke="#e0e0e0" stroke-width="0.5" stroke-dasharray="2,2"/>

  <!-- Crayon -->
  <path d="M18 2L15 5H16.5L17.5 3.5L18.5 5H20L17 2Z" fill="#ffcc00" stroke="#333" stroke-width="0.5"/>
  <path d="M17 2L17 1" stroke="#333" stroke-width="1.5"/>

  <!-- Symbole de logique (puzzle) -->
  <path d="M7 7L9 7L9 9L7 9Z" fill="#4a6fa5" stroke="#333" stroke-width="0.5"/>
  <path d="M11 7L13 7L13 9L11 9Z" fill="#4a6fa5" stroke="#333" stroke-width="0.5"/>
  <path d="M9 11L11 11L11 13L9 13Z" fill="#4a6fa5" stroke="#333" stroke-width="0.5"/>
  <path d="M7 11L9 11L9 13L7 13Z" fill="#4a6fa5" stroke="#333" stroke-width="0.5"/>
</svg>
