<?xml version="1.0" standalone="no"?>
<!DOCTYPE svg PUBLIC "-//W3C//DTD SVG 20010904//EN"
 "http://www.w3.org/TR/2001/REC-SVG-20010904/DTD/svg10.dtd">
<svg version="1.0" xmlns="http://www.w3.org/2000/svg"
 width="96px" height="96px" viewBox="0 0 420.000000 346.000000"
 preserveAspectRatio="xMidYMid meet">

<g transform="translate(0.000000,346.000000) scale(0.100000,-0.100000)"
fill="#095b16" stroke="none">
<path d="M1322 3368 c-7 -7 -12 -22 -12 -34 0 -33 -13 -37 -92 -24 -103 16
-108 10 -108 -137 l0 -113 40 0 40 0 0 91 0 91 28 -6 c40 -8 730 -107 1187
-171 441 -62 927 -133 930 -137 1 -2 -17 -154 -41 -338 -23 -184 -61 -479 -84
-655 -45 -349 -104 -834 -145 -1180 -36 -306 -24 -275 -101 -275 l-64 0 1 733
c0 402 3 726 6 720 3 -9 35 -13 109 -13 l104 0 0 26 0 25 -110 -3 -110 -3 0
415 c0 262 -4 429 -11 453 -6 21 -26 56 -45 77 -68 75 12 71 -1241 68 l-1121
-3 -39 -31 c-62 -50 -76 -83 -81 -195 l-5 -99 -104 0 c-102 0 -105 -1 -134
-29 -24 -25 -29 -38 -29 -78 0 -91 47 -123 185 -123 l85 0 0 -115 0 -115 -101
0 -101 0 -34 -34 c-29 -29 -34 -41 -34 -80 0 -36 6 -52 29 -78 29 -33 30 -33
135 -36 l106 -4 0 -119 0 -119 -106 0 c-103 0 -106 -1 -135 -29 -24 -24 -29
-38 -29 -76 0 -40 5 -52 34 -81 l34 -34 101 0 101 0 0 -120 0 -120 -106 0
c-103 0 -106 -1 -135 -29 -33 -34 -39 -92 -15 -140 21 -40 56 -51 161 -51 l95
0 0 -125 0 -125 -106 0 c-103 0 -106 -1 -135 -29 -22 -23 -29 -39 -29 -70 0
-94 38 -121 174 -121 l96 0 0 -70 c0 -113 16 -169 64 -216 47 -48 93 -64 184
-64 40 0 62 -4 62 -12 0 -22 52 -78 90 -98 39 -20 56 -20 1179 -18 l1139 3 39
31 c21 16 46 46 56 66 12 25 34 154 68 405 27 202 74 546 104 763 30 217 75
546 100 730 25 184 64 463 86 619 22 156 38 289 36 296 -3 6 -50 19 -109 28
-56 9 -274 44 -483 77 -388 62 -1312 215 -1509 250 -129 23 -129 23 -144 8z
m453 -132 c174 -32 107 -26 -177 16 -140 20 -218 36 -218 43 0 12 19 9 395
-59z m178 -33 c-7 -2 -19 -2 -25 0 -7 3 -2 5 12 5 14 0 19 -2 13 -5z m1537
-257 c0 -7 -25 -194 -56 -417 -30 -222 -75 -550 -99 -729 -25 -179 -56 -406
-69 -505 -14 -99 -50 -364 -81 -590 -30 -226 -58 -425 -61 -444 -6 -39 -62
-101 -90 -101 -16 0 -16 2 -1 18 18 20 33 74 42 157 4 33 10 65 15 70 4 6 10
35 14 65 22 191 135 1118 177 1445 97 763 129 1010 134 1031 4 17 10 19 40 16
19 -2 35 -10 35 -16z m-740 -54 c19 -9 43 -33 55 -52 20 -35 20 -46 20 -1235
0 -1326 4 -1236 -64 -1282 l-34 -23 -1099 0 c-1207 0 -1140 -3 -1173 60 -10
20 -15 58 -15 121 l0 91 83 -5 c45 -4 99 -9 120 -13 91 -16 158 103 112 200
-29 61 -106 83 -182 51 -19 -8 -57 -15 -84 -15 l-49 0 0 125 0 125 56 0 c31 0
80 -7 109 -15 47 -14 57 -14 88 -1 45 19 69 55 75 115 6 70 -19 118 -76 143
-42 19 -46 19 -90 3 -26 -10 -73 -20 -104 -22 l-58 -5 0 121 0 121 64 0 c36 0
86 -5 113 -11 42 -10 54 -9 81 5 88 46 98 187 17 240 -33 22 -103 23 -143 2
-17 -9 -54 -16 -82 -16 l-50 0 0 121 0 121 83 -5 c45 -4 99 -9 120 -13 128
-22 178 199 58 261 -38 19 -72 19 -118 0 -19 -8 -60 -15 -89 -15 l-54 0 0 117
0 116 121 -6 c140 -7 166 1 193 57 46 98 -13 206 -114 205 -19 0 -46 -6 -60
-14 -14 -8 -51 -14 -82 -15 l-58 0 0 85 c0 100 16 140 63 160 27 12 216 14
1122 15 1018 0 1092 -1 1125 -18z m-2082 -308 c25 -17 29 -56 8 -73 -9 -8 -86
-11 -256 -9 -219 3 -244 5 -254 21 -8 12 -8 22 0 35 10 15 36 18 232 22 121 3
224 8 228 13 11 10 17 9 42 -9z m10 -466 c17 -17 15 -53 -5 -69 -19 -17 -363
-25 -453 -12 -47 7 -55 12 -58 32 -2 13 1 28 8 35 7 7 85 13 223 17 117 3 226
6 243 7 16 1 35 -3 42 -10z m-7 -458 c12 -7 19 -21 19 -40 0 -19 -7 -33 -19
-40 -12 -6 -112 -10 -254 -10 -252 0 -262 2 -255 52 l3 23 217 5 c119 3 220 8
224 13 10 10 42 9 65 -3z m0 -460 c26 -14 26 -66 -1 -80 -12 -7 -104 -9 -256
-8 -213 3 -238 5 -248 21 -8 12 -8 22 0 35 10 15 35 18 222 22 116 3 214 8
218 13 10 10 42 9 65 -3z m0 -470 c26 -14 26 -66 -1 -80 -12 -7 -104 -9 -256
-8 -213 3 -238 5 -248 21 -8 12 -8 22 0 35 10 15 36 18 227 22 118 3 219 8
223 13 10 10 32 9 55 -3z m2334 -387 c-11 -98 -25 -134 -64 -160 l-34 -23
-1053 0 -1054 0 -32 30 -33 29 985 1 c628 0 998 4 1021 10 59 16 102 52 129
105 14 28 29 56 34 63 4 7 28 12 57 12 l51 0 -7 -67z"/>
<path d="M860 2545 l0 -25 905 0 905 0 0 25 0 25 -905 0 -905 0 0 -25z"/>
<path d="M860 2220 l0 -50 905 0 905 0 0 50 0 50 -905 0 -905 0 0 -50z"/>
<path d="M1813 2128 c-6 -7 -63 -172 -128 -367 -113 -339 -117 -355 -99 -368
47 -34 50 -29 176 356 66 200 116 367 111 371 -17 16 -50 20 -60 8z"/>
<path d="M1410 1984 c-235 -160 -341 -237 -337 -247 2 -7 88 -72 192 -145
l188 -132 24 22 c12 12 23 26 23 33 0 6 -67 57 -150 114 -82 57 -150 107 -150
110 1 3 68 52 150 109 83 56 150 109 150 116 0 8 -8 24 -18 36 l-17 22 -55
-38z"/>
<path d="M1995 1990 c-9 -10 -15 -26 -12 -34 3 -7 71 -58 151 -112 80 -55 145
-101 146 -104 0 -3 -66 -50 -146 -105 -80 -55 -150 -106 -156 -113 -9 -10 -5
-19 13 -38 l25 -25 197 136 c108 75 197 140 197 144 0 9 -374 271 -388 271 -5
0 -17 -9 -27 -20z"/>
<path d="M860 1895 l0 -25 125 0 125 0 0 25 0 25 -125 0 -125 0 0 -25z"/>
<path d="M2418 1914 c-3 -3 -4 -14 -1 -25 5 -17 15 -19 129 -19 l124 0 0 25 0
25 -123 0 c-68 0 -126 -3 -129 -6z"/>
<path d="M860 1570 l0 -50 125 0 125 0 0 50 0 50 -125 0 -125 0 0 -50z"/>
<path d="M2420 1570 l0 -50 125 0 125 0 0 50 0 50 -125 0 -125 0 0 -50z"/>
<path d="M860 1270 l0 -50 905 0 905 0 0 50 0 50 -905 0 -905 0 0 -50z"/>
<path d="M860 945 l0 -25 873 -2 c479 -2 887 -1 905 1 26 3 32 8 32 27 l0 24
-905 0 -905 0 0 -25z"/>
<path d="M860 615 l0 -55 903 2 902 3 3 53 3 52 -905 0 -906 0 0 -55z"/>
<path d="M3805 2923 c-63 -16 -111 -89 -102 -154 5 -36 3 -40 -29 -55 -50 -24
-74 -65 -85 -142 -11 -80 -61 -514 -129 -1117 -27 -242 -59 -520 -70 -617
l-20 -177 50 -223 c28 -123 55 -244 61 -271 9 -36 16 -48 34 -53 51 -13 55 -7
170 256 l112 255 102 920 c56 506 105 938 108 959 l6 39 30 -33 30 -33 -7 -96
c-3 -53 -19 -202 -35 -331 -15 -129 -26 -241 -24 -247 3 -7 18 -13 34 -13 16
0 32 6 34 13 2 6 21 155 41 330 43 374 43 380 -40 462 -83 82 -93 102 -89 170
5 75 -18 118 -80 145 -42 19 -64 22 -102 13z m90 -98 c14 -13 25 -31 25 -40 0
-25 -46 -65 -75 -65 -32 0 -65 33 -65 65 0 32 33 65 65 65 14 0 37 -11 50 -25z
m41 -190 c4 -9 3 -49 -1 -90 l-7 -75 -138 0 -139 0 5 38 c19 141 20 142 164
142 90 0 112 -3 116 -15z m-21 -272 c-3 -16 -21 -176 -40 -358 -20 -181 -38
-336 -40 -342 -3 -10 -40 -13 -140 -13 -101 0 -135 3 -135 13 0 6 18 167 40
357 22 190 40 351 40 358 0 9 35 12 140 12 l140 0 -5 -27z m-94 -788 c3 -2
-16 -195 -42 -427 -27 -233 -48 -431 -48 -440 -1 -16 -15 -18 -142 -18 l-141
0 6 38 c3 20 24 204 46 407 50 460 46 433 73 438 31 6 243 8 248 2z m-111
-969 c0 -2 -20 -47 -45 -100 l-44 -96 -60 0 -59 0 -17 78 c-9 42 -19 87 -22
100 -5 22 -5 22 121 22 69 0 126 -2 126 -4z m-130 -295 c-5 -11 -15 -32 -20
-47 -13 -33 -16 -30 -28 24 l-10 42 34 0 c31 0 34 -2 24 -19z"/>
<path d="M2910 2595 l0 -25 105 0 105 0 0 25 0 25 -105 0 -105 0 0 -25z"/>
<path d="M2912 2273 l3 -48 103 -3 102 -3 0 51 0 50 -106 0 -105 0 3 -47z"/>
<path d="M2910 1645 l0 -25 105 0 105 0 0 25 0 25 -105 0 -105 0 0 -25z"/>
</g>
</svg>
