<svg xmlns="http://www.w3.org/2000/svg" version="1.1" xmlns:xlink="http://www.w3.org/1999/xlink" xmlns:svgjs="http://svgjs.dev/svgjs" width="1440" height="560" preserveAspectRatio="none" viewBox="0 0 1440 560"><g mask="url(&quot;#SvgjsMask1021&quot;)" fill="none"><rect width="1440" height="560" x="0" y="0" fill="#0e2a47"></rect><path d="M1161 252L1160 -99" stroke-width="10" stroke="url(&quot;#SvgjsLinearGradient1022&quot;)" stroke-linecap="round" class="Up"></path><path d="M1008 148L1007 311" stroke-width="8" stroke="url(&quot;#SvgjsLinearGradient1023&quot;)" stroke-linecap="round" class="Down"></path><path d="M130 498L129 829" stroke-width="8" stroke="url(&quot;#SvgjsLinearGradient1024&quot;)" stroke-linecap="round" class="Down"></path><path d="M1368 462L1367 693" stroke-width="8" stroke="url(&quot;#SvgjsLinearGradient1023&quot;)" stroke-linecap="round" class="Down"></path><path d="M764 105L763 309" stroke-width="8" stroke="url(&quot;#SvgjsLinearGradient1024&quot;)" stroke-linecap="round" class="Down"></path><path d="M873 184L872 -19" stroke-width="6" stroke="url(&quot;#SvgjsLinearGradient1024&quot;)" stroke-linecap="round" class="Down"></path><path d="M740 297L739 141" stroke-width="6" stroke="url(&quot;#SvgjsLinearGradient1025&quot;)" stroke-linecap="round" class="Up"></path><path d="M806 278L805 465" stroke-width="8" stroke="url(&quot;#SvgjsLinearGradient1025&quot;)" stroke-linecap="round" class="Up"></path><path d="M634 422L633 208" stroke-width="6" stroke="url(&quot;#SvgjsLinearGradient1023&quot;)" stroke-linecap="round" class="Down"></path><path d="M1102 258L1101 486" stroke-width="8" stroke="url(&quot;#SvgjsLinearGradient1024&quot;)" stroke-linecap="round" class="Down"></path><path d="M448 531L447 200" stroke-width="6" stroke="url(&quot;#SvgjsLinearGradient1024&quot;)" stroke-linecap="round" class="Down"></path><path d="M1219 167L1218 419" stroke-width="10" stroke="url(&quot;#SvgjsLinearGradient1025&quot;)" stroke-linecap="round" class="Up"></path><path d="M456 151L455 -229" stroke-width="10" stroke="url(&quot;#SvgjsLinearGradient1023&quot;)" stroke-linecap="round" class="Down"></path><path d="M867 37L866 -233" stroke-width="10" stroke="url(&quot;#SvgjsLinearGradient1024&quot;)" stroke-linecap="round" class="Down"></path><path d="M1107 341L1106 -50" stroke-width="6" stroke="url(&quot;#SvgjsLinearGradient1024&quot;)" stroke-linecap="round" class="Down"></path><path d="M333 83L332 323" stroke-width="8" stroke="url(&quot;#SvgjsLinearGradient1024&quot;)" stroke-linecap="round" class="Down"></path><path d="M1000 411L999 163" stroke-width="6" stroke="url(&quot;#SvgjsLinearGradient1025&quot;)" stroke-linecap="round" class="Up"></path><path d="M268 212L267 421" stroke-width="8" stroke="url(&quot;#SvgjsLinearGradient1022&quot;)" stroke-linecap="round" class="Up"></path><path d="M695 390L694 624" stroke-width="6" stroke="url(&quot;#SvgjsLinearGradient1024&quot;)" stroke-linecap="round" class="Down"></path><path d="M794 45L793 300" stroke-width="10" stroke="url(&quot;#SvgjsLinearGradient1024&quot;)" stroke-linecap="round" class="Down"></path><path d="M123 315L122 508" stroke-width="6" stroke="url(&quot;#SvgjsLinearGradient1023&quot;)" stroke-linecap="round" class="Down"></path><path d="M1328 18L1327 432" stroke-width="10" stroke="url(&quot;#SvgjsLinearGradient1025&quot;)" stroke-linecap="round" class="Up"></path><path d="M206 154L205 5" stroke-width="10" stroke="url(&quot;#SvgjsLinearGradient1025&quot;)" stroke-linecap="round" class="Up"></path><path d="M589 392L588 8" stroke-width="8" stroke="url(&quot;#SvgjsLinearGradient1024&quot;)" stroke-linecap="round" class="Down"></path><path d="M673 316L672 -98" stroke-width="6" stroke="url(&quot;#SvgjsLinearGradient1025&quot;)" stroke-linecap="round" class="Up"></path><path d="M665 528L664 883" stroke-width="10" stroke="url(&quot;#SvgjsLinearGradient1025&quot;)" stroke-linecap="round" class="Up"></path><path d="M1340 462L1339 179" stroke-width="8" stroke="url(&quot;#SvgjsLinearGradient1025&quot;)" stroke-linecap="round" class="Up"></path><path d="M1299 559L1298 951" stroke-width="8" stroke="url(&quot;#SvgjsLinearGradient1024&quot;)" stroke-linecap="round" class="Down"></path><path d="M28 87L27 -108" stroke-width="10" stroke="url(&quot;#SvgjsLinearGradient1022&quot;)" stroke-linecap="round" class="Up"></path><path d="M1235 528L1234 690" stroke-width="8" stroke="url(&quot;#SvgjsLinearGradient1024&quot;)" stroke-linecap="round" class="Down"></path><path d="M1299 150L1298 517" stroke-width="8" stroke="url(&quot;#SvgjsLinearGradient1022&quot;)" stroke-linecap="round" class="Up"></path><path d="M229 248L228 655" stroke-width="10" stroke="url(&quot;#SvgjsLinearGradient1025&quot;)" stroke-linecap="round" class="Up"></path><path d="M437 364L436 532" stroke-width="8" stroke="url(&quot;#SvgjsLinearGradient1024&quot;)" stroke-linecap="round" class="Down"></path><path d="M164 276L163 638" stroke-width="6" stroke="url(&quot;#SvgjsLinearGradient1023&quot;)" stroke-linecap="round" class="Down"></path><path d="M768 415L767 702" stroke-width="8" stroke="url(&quot;#SvgjsLinearGradient1024&quot;)" stroke-linecap="round" class="Down"></path><path d="M1342 409L1341 622" stroke-width="8" stroke="url(&quot;#SvgjsLinearGradient1025&quot;)" stroke-linecap="round" class="Up"></path></g><defs><mask id="SvgjsMask1021"><rect width="1440" height="560" fill="#ffffff"></rect></mask><linearGradient x1="0%" y1="100%" x2="0%" y2="0%" id="SvgjsLinearGradient1022"><stop stop-color="rgba(28, 83, 142, 0)" offset="0"></stop><stop stop-color="#1c538e" offset="1"></stop></linearGradient><linearGradient x1="0%" y1="0%" x2="0%" y2="100%" id="SvgjsLinearGradient1023"><stop stop-color="rgba(74, 135, 41, 0)" offset="0"></stop><stop stop-color="rgba(74, 135, 41, 1)" offset="1"></stop></linearGradient><linearGradient x1="0%" y1="0%" x2="0%" y2="100%" id="SvgjsLinearGradient1024"><stop stop-color="rgba(28, 83, 142, 0)" offset="0"></stop><stop stop-color="#1c538e" offset="1"></stop></linearGradient><linearGradient x1="0%" y1="100%" x2="0%" y2="0%" id="SvgjsLinearGradient1025"><stop stop-color="rgba(74, 135, 41, 0)" offset="0"></stop><stop stop-color="rgba(74, 135, 41, 1)" offset="1"></stop></linearGradient></defs></svg>