<svg xmlns="http://www.w3.org/2000/svg" version="1.1" xmlns:xlink="http://www.w3.org/1999/xlink" xmlns:svgjs="http://svgjs.dev/svgjs" width="1600" height="900" preserveAspectRatio="none" viewBox="0 0 1600 900"><g mask="url(&quot;#SvgjsMask1039&quot;)" fill="none"><rect width="1600" height="900" x="0" y="0" fill="rgba(89, 209, 141, 1)"></rect><path d="M0,543.278C99.396,520.57,198.018,496.136,279.239,434.505C356.474,375.899,401.197,289.593,446.961,204.12C495.712,113.068,541.933,22.77,554.573,-79.736C570.363,-207.78,620.311,-367.293,528.615,-458.048C435.109,-550.595,270.231,-453.533,143.017,-487.071C21.365,-519.143,-64.937,-659.925,-190.134,-647.536C-316.63,-635.018,-407.457,-521.252,-489.835,-424.444C-571.638,-328.312,-658.819,-221.162,-660.358,-94.945C-661.855,27.853,-545.312,114.093,-497.781,227.329C-448.118,345.645,-483.685,515.293,-375.349,584.055C-266.896,652.891,-125.227,571.888,0,543.278" fill="#60bd88ff"></path><path d="M1600 1286.24C1672.559 1278.534 1733.533 1239.4189999999999 1802.108 1214.4859999999999 1893.7359999999999 1181.171 2021.719 1199.241 2070.865 1115.037 2118.892 1032.75 2055.0389999999998 928.455 2020.984 839.472 1992.811 765.857 1945.196 705.134 1891.801 647.153 1839.9180000000001 590.8140000000001 1782.461 544.213 1715.253 507.484 1632.385 462.197 1545.509 379.39700000000005 1455.792 408.873 1365.509 438.535 1364.012 569.796 1303.232 642.8489999999999 1244.255 713.736 1141.906 743.971 1106.243 829.008 1066.818 923.014 1046.627 1041.422 1099.535 1128.555 1152.407 1215.629 1271.122 1229.9470000000001 1368.282 1260.56 1443.935 1284.396 1521.125 1294.617 1600 1286.24" fill="#34c472ff"></path></g><defs><mask id="SvgjsMask1039"><rect width="1600" height="900" fill="#ffffff"></rect></mask></defs></svg>